<svg width="62" height="70" viewBox="0 0 62 70" fill="none" xmlns="http://www.w3.org/2000/svg">
<path fill-rule="evenodd" clip-rule="evenodd" d="M26.5999 0.600098C25.783 0.600524 24.9824 0.823195 24.2876 1.24317C23.5929 1.66315 23.0315 2.26385 22.6663 2.978L19.4807 9.2001H4.59995C3.433 9.2001 2.31384 9.65313 1.48868 10.4595C0.663521 11.2659 0.199951 12.3597 0.199951 13.5001C0.199951 14.6405 0.663521 15.7343 1.48868 16.5407C2.31384 17.3471 3.433 17.8001 4.59995 17.8001V60.8001C4.59995 63.081 5.52709 65.2684 7.17741 66.8812C8.82773 68.494 11.066 69.4001 13.4 69.4001H48.5999C50.9339 69.4001 53.1722 68.494 54.8225 66.8812C56.4728 65.2684 57.3999 63.081 57.3999 60.8001V17.8001C58.5669 17.8001 59.6861 17.3471 60.5112 16.5407C61.3364 15.7343 61.7999 14.6405 61.7999 13.5001C61.7999 12.3597 61.3364 11.2659 60.5112 10.4595C59.6861 9.65313 58.5669 9.2001 57.3999 9.2001H42.5191L39.3335 2.978C38.9684 2.26385 38.407 1.66315 37.7123 1.24317C37.0175 0.823195 36.2169 0.600524 35.3999 0.600098H26.5999ZM17.7999 26.4001C17.7999 25.2597 18.2635 24.1659 19.0887 23.3595C19.9138 22.5531 21.033 22.1001 22.1999 22.1001C23.3669 22.1001 24.4861 22.5531 25.3112 23.3595C26.1364 24.1659 26.5999 25.2597 26.5999 26.4001V52.2001C26.5999 53.3405 26.1364 54.4343 25.3112 55.2407C24.4861 56.0471 23.3669 56.5001 22.1999 56.5001C21.033 56.5001 19.9138 56.0471 19.0887 55.2407C18.2635 54.4343 17.7999 53.3405 17.7999 52.2001V26.4001ZM39.7999 22.1001C38.633 22.1001 37.5138 22.5531 36.6887 23.3595C35.8635 24.1659 35.3999 25.2597 35.3999 26.4001V52.2001C35.3999 53.3405 35.8635 54.4343 36.6887 55.2407C37.5138 56.0471 38.633 56.5001 39.7999 56.5001C40.9669 56.5001 42.0861 56.0471 42.9112 55.2407C43.7364 54.4343 44.1999 53.3405 44.1999 52.2001V26.4001C44.1999 25.2597 43.7364 24.1659 42.9112 23.3595C42.0861 22.5531 40.9669 22.1001 39.7999 22.1001Z" fill="white"/>
</svg>
